PathFileType	4	(X/Y/Z)	Patient4_TMGait_0pt5_01_left_08.trc.trc
DataRate	CameraRate	NumFrames	NumMarkers	Units	OrigDataRate	OrigDataStartFrame	OrigNumFrames
75.268817204301	75.268817204301	7	33	mm	75.268817204301	89	       141
Frame#	Time	L.ASIS			Sacral			L.Shoulder			Chest			R.Shoulder			Neck			R.ASIS			R.Thigh.Superior			R.Thigh.Lateral			R.Thigh.Inferior			R.Patella			L.Thigh.Superior			L.Thigh.Lateral			L.Thigh.Inferior			L.Patella			L.Shank.Superior			L.Shank.Lateral			L.Shank.Inferior			R.Shank.Superior			R.Shank.Lateral			R.Shank.Inferior			R.Heel			R.Midfoot.Superior			R.Midfoot.Lateral			R.Toe			L.Heel			L.Midfoot.Lateral			L.Midfoot.Superior			L.Toe			L.Elbow			L.Wrist			R.Elbow			R.Wrist			
		X1	Y1	Z1	X2	Y2	Z2	X3	Y3	Z3	X4	Y4	Z4	X5	Y5	Z5	X6	Y6	Z6	X7	Y7	Z7	X8	Y8	Z8	X9	Y9	Z9	X10	Y10	Z10	X11	Y11	Z11	X12	Y12	Z12	X13	Y13	Z13	X14	Y14	Z14	X15	Y15	Z15	X16	Y16	Z16	X17	Y17	Z17	X18	Y18	Z18	X19	Y19	Z19	X20	Y20	Z20	X21	Y21	Z21	X22	Y22	Z22	X23	Y23	Z23	X24	Y24	Z24	X25	Y25	Z25	X26	Y26	Z26	X27	Y27	Z27	X28	Y28	Z28	X29	Y29	Z29	X30	Y30	Z30	X31	Y31	Z31	X32	Y32	Z32	X33	Y33	Z33	

89	11.909142857143	736.494914022944	958.966558249199	330.449937256077	516.249863461177	992.293366801224	479.328350333123	683.485114099314	1437.447063653588	325.390290153533	778.293669286495	1362.685980100442	489.448285472925	679.394586467326	1424.601891265032	661.905447854512	671.792751186495	1490.072628635303	478.797960046746	743.404372603270	935.718176103781	604.238458598663	812.359610174691	749.327365421092	569.971193046030	747.139681403356	631.949523051655	629.089239600944	831.827357316206	590.001467214780	549.140876587464	845.397159427138	499.636088129330	555.424468065126	768.703030696739	733.061413996444	351.270762767783	674.813355122700	623.798551814238	285.741559756560	753.275554564773	535.111436811973	344.684049323030	742.475788408047	450.928062722607	342.760854353891	676.967519208930	392.473577478142	337.073394168184	541.370379556405	340.008428131831	284.454484346266	531.489049887667	213.948506441205	345.802108491461	821.604208512052	408.730196329044	563.192628752505	756.930788544734	301.216704361030	624.823134484136	804.414703489591	208.781478278605	562.939667881785	677.555663631165	42.217502244016	532.366630484454	847.868878743554	98.226318246317	569.805953081651	760.238281085351	36.453813919822	608.032350113022	968.007163469208	46.560655416524	598.545704861718	343.548897224451	129.571352713222	376.266007243772	411.535075745463	92.279799033771	300.943289776449	511.230344805148	116.872941405692	327.276473661071	606.296858629446	31.895359368848	308.421527758083	681.178229762360	1094.034786959722	179.177439790687	874.038382298207	919.594065831740	212.162157632432	633.350214577462	1079.302734533652	768.836495250975	782.966056443796	866.711086209643	763.964214414372	
90	11.922428571429	735.921465885379	959.786258702865	332.794170007529	516.657769969815	993.250406832708	483.161446695599	682.822114346788	1438.459427416770	328.419604016435	779.013083305928	1363.463296179821	491.547655983029	681.770965034081	1425.214361357479	664.991047363656	672.327780312724	1490.911097882452	482.055261048638	744.653246001954	936.615938305007	606.420156028811	811.712304106808	748.672322727037	573.160759356357	744.990104783666	631.961673994543	631.485589837381	829.420591087336	589.332127671285	551.620858342841	842.016959726810	498.927726443765	557.475337461621	773.418742069534	735.702361053145	353.228806654076	683.319212177750	624.326960503280	287.159882211364	764.799771593361	537.231142233292	345.483233132345	755.065964692473	451.830153440871	342.584923023545	687.563723095940	393.592160665705	337.311578858310	549.697932737945	346.155647109440	285.664833310783	536.223937503972	220.150095840761	346.298959860099	817.490683012485	408.241952427529	564.899311776409	751.948621057187	300.983712599474	625.917770248620	798.817267790487	208.465336907892	563.784486667400	671.000316952565	42.277383645025	532.545759372280	841.388573344871	98.222839883311	570.208305066096	753.653176152109	36.437548475587	608.220764234385	961.456853928501	46.322244079659	598.816927377986	345.264307338190	144.560814250232	377.622174446721	410.870880915735	103.724325930597	301.871996683185	512.133719372388	122.582425722565	327.689850159750	601.539421355768	31.460758460292	308.323850447443	677.200182342886	1094.718670479850	182.889519547047	867.243528346289	916.308173362102	212.706911950678	638.539215008797	1080.191722857136	774.002374562626	791.665221486491	870.257625117312	768.668535885952	
91	11.935714285714	735.206111428786	960.478120854201	334.996914548928	516.899722166471	994.139426252038	486.902023817370	681.965433168859	1439.324702794045	331.281103204057	779.626589818844	1364.136533632736	493.440404044161	684.108354277504	1425.760341458021	667.865400026828	672.780986419409	1491.663175395023	485.117647905316	745.706752264395	937.431944271826	608.493081267420	810.761329696918	747.947854061332	576.313166246530	742.544313215037	631.936300580472	633.857933555888	826.733410073162	588.640486241748	554.119739642917	838.328672140845	498.212452356735	559.616769036820	777.916646759380	738.545112055176	355.130865360264	691.597502996707	625.220108189951	288.399071306185	775.928327491387	539.828156269426	346.179568590979	767.352903646542	453.302701695014	342.436283289627	698.170479973583	395.164142383229	337.501625796386	558.310755585502	352.393842890763	286.921757194439	541.617070802914	226.532223913569	346.953394801557	813.127504551333	407.742688488624	566.669637173430	746.728863343003	300.707951530109	627.027112992812	793.108896982937	208.136557251829	564.686895934727	664.357022562672	42.354269884769	532.721608851815	834.880849676806	98.136596865933	570.587629126489	746.987008696314	36.389102732934	608.397302048208	954.854844697974	45.880433589925	599.073397128701	348.203092609855	159.048373027754	379.390227986664	411.381468287555	115.226856021200	303.039802786699	513.959732934422	128.705976567546	328.241909783042	597.976753683091	31.474855449383	307.952371528277	672.942212096707	1095.273844608321	186.444362290871	859.801881768522	912.714501043097	212.997399016937	643.713466362829	1081.098239283507	779.072205863718	800.337484940141	873.883988724171	773.166735907307	
92	11.949000000000	734.366729857685	961.081580621888	337.051117643402	516.990024269737	994.962907280399	490.515402289725	680.939730475044	1440.074614567241	333.972103597598	780.125550541126	1364.726559902981	495.141111331606	686.361097848380	1426.255679076310	670.517693203663	673.169953048528	1492.352350837400	487.979932326681	746.567266601340	938.189977307168	610.466789667969	809.547624075490	747.223152336785	579.324039440827	739.895115069071	631.918068375424	636.154732520728	823.830305855786	587.967310671619	556.560785788171	834.400484707812	497.519805391712	561.779468500458	782.086223851229	741.591812546697	356.975950978402	699.459763399938	626.507854716219	289.471812122659	786.456565915274	542.899747262243	346.748393270659	779.144756915422	455.353692861396	342.279531787404	708.616850429486	397.181347581170	337.623482466417	567.044305859275	358.531726456906	288.210434166371	547.660416114045	232.831628034770	347.719955964057	808.577984494542	407.261012760508	568.447614391315	741.344440895592	300.431328198139	628.134430391317	787.329362677109	207.819795218730	565.617181365224	657.650450177193	42.450339553021	532.900153260232	828.362106045207	97.996334433875	570.941603249763	740.267297236303	36.326612576644	608.563661415729	948.217954952166	45.299691504377	599.310950552050	352.404080723280	172.361558545004	381.534806974194	413.220855795673	126.228973357381	304.413534568106	516.856501568252	134.957718959436	328.869778539818	596.029383999826	32.008098853518	307.256535391818	668.421373309479	1095.720777193188	189.879210881524	851.678858677776	908.824349445719	213.016185862782	648.900001985963	1082.012561592028	783.974001301936	808.969650694074	877.556997746009	777.417615121320	
93	11.962285714286	733.414906912761	961.653643857039	338.957033605178	516.945763964433	995.739300928591	493.976010930252	679.776602554425	1440.756283611465	336.497278158590	780.503709469910	1365.267845564818	496.671614655079	688.488014155249	1426.728358971895	672.948826005019	673.509835535273	1493.013202798324	490.644285755232	747.240044992494	938.920495562326	612.347745211294	808.101704213699	746.556873729147	582.109249761568	737.097399169208	631.942987553799	638.330898691381	820.746179271940	587.342097491926	558.880443264322	830.270034289812	496.876720150014	563.893528644925	785.832548589701	744.839950628850	358.753855295991	706.743793004102	628.198416930523	290.394039576211	796.223856781431	546.421287979102	347.160474318626	790.286939374648	457.970837913691	342.071365367291	718.767970574178	399.614402452818	337.653527016983	575.767115695245	364.355628110640	289.500332484198	554.375114879840	238.762153998339	348.534921886514	803.878157793400	406.825387219559	570.178993460868	735.841645745070	300.192646070629	629.217880094434	781.501181191652	207.541719690270	566.546578822570	650.906503722270	42.564990308375	533.085298349134	821.844912573759	97.835251988223	571.272360417480	733.521788540834	36.266874555882	608.721354090320	941.561287691682	44.656069276074	599.529561187699	357.901638683818	183.848524686592	383.975490430981	416.543273421229	136.151111736098	305.930705597660	520.993211736732	140.998149335108	329.498465529214	596.121935635196	33.067027428721	306.210684526458	663.658763310868	1096.100295416097	193.235961568372	842.834639256457	904.667666000982	212.758686082975	654.119723395817	1082.933643686208	788.637358672148	817.549079426751	881.256161197293	781.382578059479	
94	11.975571428571	732.355854771680	962.257170752615	340.720577817515	516.784359749789	996.497979175003	497.267346242806	678.510395995335	1441.422052378457	338.868219572010	780.758432470615	1365.800183084220	498.058251172450	690.457731417700	1427.210652121929	675.171722581443	673.810452817014	1493.682964966597	493.120355181240	747.731988995668	939.651560956867	614.135935159713	806.442368407655	745.988884781702	584.608523393006	734.170533709520	632.034811381135	640.350360798119	817.486874040989	586.780541502548	561.029611623639	825.944504800794	496.303918589619	565.894179014950	789.084002448876	748.275997463694	360.444813382614	713.324248853276	630.273620716186	291.184891405706	805.117120664020	550.343173468339	347.392073240246	800.663281110705	461.119110822497	341.775991075979	728.527360110822	402.411341343544	337.573989419066	584.388138070886	369.641018931822	290.748659876156	561.806187010028	244.036592380658	349.324741984842	799.037808097455	406.459164514011	571.815474805002	730.240547777336	300.021587283749	630.252982567638	775.629984461568	207.325292621112	567.448501308772	644.147551371439	42.694708654707	533.277820222863	815.336532331582	97.683840969681	571.583492764043	726.773492565874	36.222754311291	608.871044055817	934.896223395376	44.022502473584	599.731168498235	364.727107873078	192.931998933119	386.589379687004	421.493617333363	144.443764635152	307.501933232431	526.543585561697	146.464825200625	330.048848141399	598.643132943334	34.582191770365	304.816741374923	658.681600686994	1096.465248543040	196.552660420136	833.233678852729	900.294653058631	212.235639900211	659.382198393748	1083.864012351575	792.999163344767	826.066681639360	884.974228725074	785.023700710673	
95	11.988857142857	731.189801214717	962.948604030807	342.350974816363	516.521137041711	997.272716445167	500.380363113907	677.174360470007	1442.119526764308	341.101752510534	780.891549967155	1366.359963470739	499.328550113631	692.252251108072	1427.731146003961	677.209413032371	674.074813194617	1494.393347402240	495.424596693912	748.050344451990	940.401209112801	615.823667587111	804.577760007266	745.536486754801	586.784589097741	731.107540919036	632.203943000660	642.187725527245	814.035116566176	586.284446927693	562.972991020081	821.406799700942	495.813815305730	567.726799149993	791.797170884116	751.870665616926	362.022445317855	719.119228207891	632.687544450133	291.866556456838	813.068989780219	554.590383256455	347.435472337262	810.193881446516	464.740163529723	341.378426279460	737.834197729594	405.499324673935	337.380799987565	592.857797286916	374.168371291706	291.906529632800	570.012143001979	248.391206389809	350.015318835337	794.046395883106	406.177206432132	573.318043014489	724.540416928969	299.935084945661	631.215814220641	769.708131617420	207.185635240498	568.299590588145	637.389799012139	42.833270306201	533.475066659959	808.838586161889	97.564976434825	571.877770800886	720.037953708340	36.201817416452	609.012262510004	928.229733253486	43.458371054203	599.917960062665	372.909448394394	199.156359259925	389.221154985641	428.196768963131	150.637616687283	309.017824641968	533.666426350256	151.009324696786	330.445267050678	603.906441541302	36.412543190589	303.101302839536	653.524192506248	1096.870969902483	199.856114431267	822.854177258423	895.774279736953	211.473151580580	664.682963561674	1084.804517131369	797.008036910497	834.518312055325	888.715409321804	788.302825582631	
